<svg id="arrows" xmlns="http://www.w3.org/2000/svg" viewBox="0 0 500 500"><defs><style>.cls-1,.cls-2{fill:#fff;}.cls-1{opacity:0.85;}.cls-2{opacity:0.5;}</style></defs><g id="circle-arrow-down-ico"><path class="cls-1" d="M287.5,287.43l45.58-45.58a37.5,37.5,0,1,1,53,53L303,378,287.5,393.5,250,431l-37.5-37.5L197,378,159.5,340.5,73.22,426.78A249.23,249.23,0,0,0,250,500c138.07,0,250-111.93,250-250A249.23,249.23,0,0,0,426.78,73.22L287.5,212.5Z"/><path class="cls-2" d="M159.5,340.5l-45.61-45.62a37.5,37.5,0,0,1,53-53l45.58,45.58V97.5a37.5,37.5,0,0,1,75,0v115L426.78,73.22A249.23,249.23,0,0,0,250,0C111.93,0,0,111.93,0,250A249.23,249.23,0,0,0,73.22,426.78Z"/></g></svg>