<svg id="arrow" xmlns="http://www.w3.org/2000/svg" viewBox="0 0 500 500"><defs><style>.cls-1,.cls-2{fill:#7f7f7f;}.cls-1{opacity:0.5;}.cls-2{opacity:0.85;}</style></defs><path class="cls-1" d="M212.5,212.57l-45.58,45.58a37.5,37.5,0,1,1-53-53L197,122,212.5,106.5,250,69l37.5,37.5L303,122,340.5,159.5l86.28-86.28A249.23,249.23,0,0,0,250,0C111.93,0,0,111.93,0,250A249.23,249.23,0,0,0,73.22,426.78L212.5,287.5Z"/><path class="cls-2" d="M340.5,159.5l45.61,45.62a37.5,37.5,0,1,1-53,53L287.5,212.57V402.5a37.5,37.5,0,0,1-75,0v-115L73.22,426.78A249.23,249.23,0,0,0,250,500c138.07,0,250-111.93,250-250A249.23,249.23,0,0,0,426.78,73.22Z"/></svg>