<svg id="elipsis-v" xmlns="http://www.w3.org/2000/svg" viewBox="0 0 500 500"><defs><style>.cls-1,.cls-2{fill:#7f7f7f;}.cls-1{opacity:0.85;}.cls-2{opacity:0.5;}</style></defs><path class="cls-1" d="M285.35,214.65a50,50,0,1,1-70.7,70.7L73.22,426.78A249.23,249.23,0,0,0,250,500c138.07,0,250-111.93,250-250A249.23,249.23,0,0,0,426.78,73.22ZM250,440a50,50,0,1,1,50-50A50,50,0,0,1,250,440Z"/><path class="cls-2" d="M200,250a50,50,0,0,1,85.35-35.35L426.78,73.22A249.23,249.23,0,0,0,250,0C111.93,0,0,111.93,0,250A249.23,249.23,0,0,0,73.22,426.78L214.65,285.35A49.83,49.83,0,0,1,200,250ZM250,60a50,50,0,1,1-50,50A50,50,0,0,1,250,60Z"/></svg>