<svg id="Capa_9" data-name="Capa 9" xmlns="http://www.w3.org/2000/svg" viewBox="0 0 500 500"><defs><style>.cls-2,.cls-3{fill:#fff;}.cls-2{opacity:0.85;}.cls-3{opacity:0.5;}</style></defs><path class="cls-2" d="M312.91,187.09l25.84,40.63A265.41,265.41,0,0,1,353.23,253a1,1,0,0,0,1.88-.59A243.89,243.89,0,0,1,352.42,216V171.69a5,5,0,0,1,5-5H389a5,5,0,0,1,5,5V328.31a5,5,0,0,1-5,5H355.2A5,5,0,0,1,351,331l-44.17-71.26A255.87,255.87,0,0,1,293,234a1,1,0,0,0-1.88.61,97.09,97.09,0,0,1,2,18.06v75.69a5,5,0,0,1-5,5h-31.5a5,5,0,0,1-5-5v-79.9l-45.11,45.11h19.84a5,5,0,0,1,5,5v29.79a5,5,0,0,1-5,5H166.69L73.22,426.78A249.22,249.22,0,0,0,250,500c138.07,0,250-111.93,250-250A249.22,249.22,0,0,0,426.78,73.22Z"/><path class="cls-3" d="M111,333.31a5,5,0,0,1-5-5V171.69a5,5,0,0,1,5-5H226.32a5,5,0,0,1,5,5v28.45a5,5,0,0,1-5,5H161.13a5,5,0,0,0-5,5v14.17a5,5,0,0,0,5,5h50.79a5,5,0,0,1,5,5v27a5,5,0,0,1-5,5H161.13a5,5,0,0,0-5,5v17.22a5,5,0,0,0,5,5h45.35l45.11-45.11V171.69a5,5,0,0,1,5-5h40.59A5,5,0,0,1,301.4,169l11.51,18.09L426.78,73.22A249.22,249.22,0,0,0,250,0C111.93,0,0,111.93,0,250A249.22,249.22,0,0,0,73.22,426.78l93.47-93.47Z"/></svg>