<svg id="Capa_9" data-name="Capa 9" xmlns="http://www.w3.org/2000/svg" viewBox="0 0 500 500"><defs><style>.cls-1,.cls-2{fill:#fff;}.cls-1{opacity:0.85;}.cls-2{opacity:0.5;}</style></defs><g id="es-ico"><path class="cls-1" d="M334.52,165.48q33.54,5.57,47.58,34.21a5,5,0,0,1-3.06,7l-32.81,9.93a5,5,0,0,1-5.86-2.44q-7.22-13-25-13-16.72,0-16.72,10.38a8.21,8.21,0,0,0,3.78,7.2q3.78,2.56,14.65,4.87,29.91,6.33,42.49,11.19a45.87,45.87,0,0,1,21,16.66Q389,263.2,389,279.2q0,25.28-20.51,41t-53.83,15.7q-57.49,0-73.44-45.23a5,5,0,0,1,3.84-6.56l37.74-6.79a5,5,0,0,1,5.5,3q7.05,16.4,29.41,16.39,19.29,0,19.29-10.25a9.52,9.52,0,0,0-4.46-8.36q-4.45-3-15.93-5.31-43.83-8.4-56.28-21.95a50.52,50.52,0,0,1-4.89-6.24l-48.94,48.94h24.91a5,5,0,0,1,5,5v29.79a5,5,0,0,1-5,5h-64.7L73.22,426.78A249.22,249.22,0,0,0,250,500c138.07,0,250-111.93,250-250A249.22,249.22,0,0,0,426.78,73.22Z"/><path class="cls-2" d="M116,333.31a5,5,0,0,1-5-5V171.69a5,5,0,0,1,5-5H231.39a5,5,0,0,1,5,5v28.45a5,5,0,0,1-5,5h-65.2a5,5,0,0,0-5,5v14.17a5,5,0,0,0,5,5H217a5,5,0,0,1,5,5v27a5,5,0,0,1-5,5H166.19a5,5,0,0,0-5,5v17.22a5,5,0,0,0,5,5h40.29l48.94-48.94A45.32,45.32,0,0,1,247.86,219q0-23.56,17.89-39.2t51.45-15.63a105.16,105.16,0,0,1,17.32,1.36l92.26-92.26A249.22,249.22,0,0,0,250,0C111.93,0,0,111.93,0,250A249.22,249.22,0,0,0,73.22,426.78l93.47-93.47Z"/></g></svg>