<svg id="github" xmlns="http://www.w3.org/2000/svg" viewBox="0 0 500 500"><defs><style>.cls-1,.cls-2{fill:#fff;}.cls-1{opacity:0.85;}.cls-2{opacity:0.5;}</style></defs><path class="cls-1" d="M365.39,134.61a84.72,84.72,0,0,1-2.08,20.59c-.66,2.91-.16,7.07,1.53,9.38C409,224.86,377,307.67,303.78,321.78c-5.4,1-10.85,1.87-17.48,3,13.24,15,13.86,32.53,13.6,50.35-.26,18.21-.06,36.42-.06,55.86-35.23,9.4-71.28,8.61-107.87-2.05V385.8c-9.93,0-19.21.51-28.42-.1-14.17-.94-26-5.4-34.8-14.45L73.22,426.78A249.22,249.22,0,0,0,250,500c138.07,0,250-111.93,250-250A249.22,249.22,0,0,0,426.78,73.22Z"/><path class="cls-1" d="M186.66,355.19c2.89-1.07,5.5-4.49,7-7.45,3.62-7.28,6.5-14.92,9.9-22.95l-14.27-2.7c-3.2-.61-6.29-1.29-9.29-2.06l-32.66,32.66C158.45,359.84,171.74,360.76,186.66,355.19Z"/><path class="cls-2" d="M118.25,354.75c-4.87-11.93-12.16-22.18-23.48-29L85,319.8l2.37-5c4.83-.45,9.86-2,14.45-1.15,13.62,2.54,22.64,11.61,29.94,22.9q6.84,10.58,15.55,16.16L180,320c-44.73-11.44-68.14-41-71.29-89.41-1.59-24.37,2.8-46.81,18.53-66.34,1.63-2,2.12-6,1.45-8.64-3.91-15.33-2.61-30.28,1.56-45.33,1.8-6.5,5.71-9.32,11.57-7.07,15,5.74,29.64,12.39,44.57,18.29,3.74,1.48,8.34,2.85,12,2a218.06,218.06,0,0,1,95.49.1c3.47.77,7.78-.44,11.26-1.84,14.9-6,29.52-12.72,44.5-18.51,6.18-2.39,10.28.41,12.17,7.38a98.84,98.84,0,0,1,3.56,23.92l61.39-61.39A249.22,249.22,0,0,0,250,0C111.93,0,0,111.93,0,250A249.22,249.22,0,0,0,73.22,426.78l55.53-55.53A51,51,0,0,1,118.25,354.75Z"/></svg>