<svg id="linked_in" data-name="linked in" xmlns="http://www.w3.org/2000/svg" viewBox="0 0 500 500"><defs><style>.cls-1,.cls-2{fill:#fff;}.cls-1{opacity:0.85;}.cls-2{opacity:0.5;}</style></defs><path class="cls-1" d="M301.1,198.9a69.53,69.53,0,0,1,13.12-1.23c35,0,61.25,23.45,61.25,73.86V372.68h-53.2V277.83c0-22-7.7-37.11-26.95-37.11-14.7,0-23.45,10.15-27.3,20-1.4,3.5-1.75,8.4-1.75,13.3v98.7h-53.2V286.93l-33.94,33.94v51.81H127.32l-54.1,54.1A249.22,249.22,0,0,0,250,500c138.07,0,250-111.93,250-250A249.22,249.22,0,0,0,426.78,73.22Z"/><path class="cls-2" d="M125.93,372.68V201.52h53.2V320.87l33.94-33.94V256.12c0-21.35-.7-39.2-1.4-54.6h46.2l2.45,23.8h1.05A60.49,60.49,0,0,1,301.1,198.9L426.78,73.22A249.22,249.22,0,0,0,250,0C111.93,0,0,111.93,0,250A249.22,249.22,0,0,0,73.22,426.78l54.1-54.1Zm26.95-245.36c17.15,0,27.65,11.55,28,26.6,0,14.7-10.85,26.6-28.35,26.6h-.35c-16.8,0-27.65-11.9-27.65-26.6C124.53,138.87,135.73,127.32,152.88,127.32Z"/></svg>