<svg id="ico-luna" xmlns="http://www.w3.org/2000/svg" viewBox="0 0 500 500"><defs><style>.cls-1,.cls-3{fill:#1d5e88;}.cls-1,.cls-2{opacity:0.5;}.cls-2,.cls-4{fill:#fff;}.cls-3,.cls-4{opacity:0.85;}</style></defs><path class="cls-1" d="M75.86,323.57A189,189,0,0,1,250,61a190.9,190.9,0,0,1,27.2,2,15,15,0,0,1,.37,29.63A112.45,112.45,0,0,0,217,283L426.78,73.22A249.23,249.23,0,0,0,250,0C111.93,0,0,111.93,0,250A249.23,249.23,0,0,0,73.22,426.78l43.14-43.14A188.18,188.18,0,0,1,75.86,323.57Z"/><path class="cls-2" d="M169,203.5A127.53,127.53,0,0,1,275.06,77.8,174.09,174.09,0,0,0,76,250a173.49,173.49,0,0,0,51,123l79.38-79.38A127.13,127.13,0,0,1,169,203.5Z"/><path class="cls-3" d="M217,283a112.45,112.45,0,0,0,190.42-60.58,15,15,0,0,1,14.78-12.49h.19A15,15,0,0,1,437,222.8a190.9,190.9,0,0,1,2,27.2A188.94,188.94,0,0,1,116.36,383.64L73.22,426.78A249.23,249.23,0,0,0,250,500c138.07,0,250-111.93,250-250A249.23,249.23,0,0,0,426.78,73.22Z"/><path class="cls-4" d="M424,250a175.47,175.47,0,0,0-1.8-25.06,127.52,127.52,0,0,1-215.86,68.72L127,373A174,174,0,0,0,424,250Z"/></svg>