<svg id="ico-sol" xmlns="http://www.w3.org/2000/svg" viewBox="0 0 500 500"><defs><style>.cls-1,.cls-4{fill:#93d1d8;}.cls-1,.cls-2,.cls-3{opacity:0.5;}.cls-2,.cls-5{fill:#ffdc0d;}.cls-3,.cls-6{fill:#ffbb10;}.cls-4,.cls-5,.cls-6{opacity:0.85;}</style></defs><path class="cls-1" d="M110.48,360.57,60.29,376.76l34.16-40.18,29.08-34.19-44.74-3.62-52.56-4.26,46.93-24,40-20.47L73.16,229.53l-46.93-24,52.56-4.26,44.74-3.62L94.45,163.42,60.29,123.24l50.19,16.19L153.2,153.2l-13.77-42.72L123.24,60.29l40.18,34.16,34.19,29.08,3.62-44.74,4.26-52.56,24,46.93,20.47,40,20.47-39.95,24-46.93,4.26,52.56,3.62,44.74,34.19-29.08,40.18-34.16-16.19,50.19L346.8,153.2l80-80A249.23,249.23,0,0,0,250,0C111.93,0,0,111.93,0,250A249.23,249.23,0,0,0,73.22,426.78l80-80Z"/><path class="cls-2" d="M175,250a75,75,0,0,1,128-53l20.53-20.53h0l22.76-70.58-56.5,48-6-73.92L250,146,216.18,80l-6,73.92-56.5-48,22.76,70.58L105.88,153.7l48,56.5-73.92,6L146,250,80,283.82l73.92,6-48,56.5,70.58-22.76L197,303A74.77,74.77,0,0,1,175,250Z"/><path class="cls-3" d="M250,190a60,60,0,0,0-42.43,102.43l84.86-84.86A59.85,59.85,0,0,0,250,190Z"/><path class="cls-4" d="M346.8,153.2l42.72-13.77,50.19-16.19-34.16,40.18-29.08,34.19,44.74,3.62,52.56,4.26-46.93,24L386.89,250l39.95,20.47,46.93,24-52.56,4.26-44.74,3.62,29.08,34.19,34.16,40.18-50.19-16.19L346.8,346.8l13.77,42.72,16.19,50.19-40.18-34.16-34.19-29.08-3.62,44.74-4.26,52.56-24-46.93L250,386.89l-20.47,39.95-24,46.93-4.26-52.56-3.62-44.74-34.19,29.08-40.18,34.16,16.19-50.19L153.2,346.8l-80,80A249.23,249.23,0,0,0,250,500c138.07,0,250-111.93,250-250A249.23,249.23,0,0,0,426.78,73.22Z"/><path class="cls-5" d="M210.2,346.08l6,73.92L250,354l33.82,66,6-73.92,56.5,48-22.76-70.58,70.58,22.76-48-56.5,73.92-6L354,250l66-33.82-73.92-6,48-56.5-70.58,22.76L303,197A75,75,0,1,1,197,303l-20.53,20.53L153.7,394.12Z"/><path class="cls-6" d="M310,250a59.85,59.85,0,0,0-17.57-42.43l-84.86,84.86A60,60,0,0,0,310,250Z"/></svg>