<svg id="logo_wa" data-name="logo wa" xmlns="http://www.w3.org/2000/svg" viewBox="0 0 500 500"><defs><style>.cls-1,.cls-2{fill:#fff;}.cls-1{opacity:0.5;}.cls-2{opacity:0.75;}</style></defs><g id="final"><path class="cls-1" d="M250,0C111.93,0,0,111.93,0,250A249.22,249.22,0,0,0,74.82,428.33c9.77-29.15,18.94-54.94,26.77-81.12a32.22,32.22,0,0,0-1.6-21c-30.39-65.38-26.68-128.32,17.15-185.6S221.27,61.58,291.6,76.92c35.48,7.73,64.57,23.13,86.76,45.51L427,73.4A249.22,249.22,0,0,0,250,0Z"/><path class="cls-2" d="M427,73.4l-48.59,49c21.49,21.68,36.53,49.92,44.6,84.17,16,67.88-3.67,127-56.85,172-53.7,45.41-115.25,53-180.27,26.75-11.82-4.77-21.63-5.75-33.67-1.39-24.28,8.79-49.16,15.92-77,24.74A249.17,249.17,0,0,0,250,500c138.07,0,250-111.93,250-250A249.2,249.2,0,0,0,427,73.4Z"/><path class="cls-2" d="M357,144,236.54,265.55a127.64,127.64,0,0,0,29.74,21.6c8.81,4.67,14.26,3.33,20.67-4.08,14-16.14,14.33-15.82,33.51-5.7,3.35,1.78,6.69,3.59,10,5.39,16.55,8.94,19.08,24.68,4.05,36.71-9.19,7.36-21.32,11-34.8,17.69-22.38-10.88-45.6-19.6-66-32.73a128.72,128.72,0,0,1-19.95-15.94l-93.95,94.8c-.15.46-.31.9-.46,1.36,15.94-5.06,28.75-8.5,41-13.25,9.69-3.75,17.47-2.61,26.65,2.45,30.68,16.93,63.61,21,97.91,13.92C360.93,372,410.46,297.21,396.7,219.17A140.59,140.59,0,0,0,357,144Z"/><path class="cls-1" d="M175.44,233.73C163,209.17,166.11,185,182,168.85c13-13.2,28.62-10,35.08,7.27,2.16,5.78,3.59,11.95,6.52,17.31,6.2,11.35,4.6,20.89-5.22,29-7.08,5.85-5.84,11.67-1.48,18.64a132.29,132.29,0,0,0,19.6,24.48L357,144c-31.84-31.68-78-48.77-124.38-41.3C130.18,119.19,77.86,232.28,130.81,321.83c3.25,5.51,3.81,14.17,2.34,20.61-3,12.89-8,25.31-13.29,40.85l94-94.8C197.84,273,185.65,253.89,175.44,233.73Z"/></g></svg>